<svg xmlns="http://www.w3.org/2000/svg" width="343.48939" height="234.46204" viewBox="0 0 343.48939 234.46204">
  <g>
    <g style="opacity: 0.949997007846832">
      <path d="M343.39881,49.13242a6.63922,6.63922,0,0,0-5.97909-5.32471c-35.16838-2.72214-73.059-6.32077-109.39941-10.23925-38.418-23.66942-78.30813-28.90625-118.645-15.40769C71.38944,12.44788,37.261,6.41761,7.99111.15782a6.586,6.586,0,0,0-6.69688,2.439,6.66729,6.66729,0,0,0-.542,7.02147C9.46558,25.961,18.54768,51.24671,23.98959,71.27353,8.3158,89.83312-2.24093,118.14122,34.28,154.38878c.10506,27.4878-3.00288,52.727-8.97944,71.51124a6.43083,6.43083,0,0,0,2.49759,7.40475,6.663,6.663,0,0,0,7.88569-.28075c23.40332-18.88184,56.33056-41.09128,97.43169-66.01559,39.3872-8.91846,76.5039-30.02443,99.74361-56.75294C271.3894,89.4718,311.29426,69.37412,339.69274,56.32484a6.66916,6.66916,0,0,0,3.70607-7.19242" style="fill: #fff"/>
    </g>
    <path d="M228.58358,105.06065C271.42769,82.00893,310.71,62.4142,336.96479,50.32679c-33.96228-2.64895-71.99452-6.16212-111.24745-10.49072-37.6074-23.61573-76.27443-28.53517-115.67876-14.895C78.40282,20.19492,47.7778,14.96056,19.69686,9.25255,29.44535,23.02942,37.70223,44.90686,43.6323,69.99963,37.92188,76.55968,33.28315,83.25645,30.522,89.55528c-3.15666,6.87257-4.83885,13.84523-4.03076,20.3833,1.10358,5.9595,4.23833,11.25735,8.772,15.92774.68113.60793,1.44035,1.35012,2.29,2.20217a72.94388,72.94388,0,0,0,15.65427,10.40772H53.21c.73969.37841,1.47939.74461,2.23622,1.11084,20.36139,10.99609,39.065,11.74316,66.83111,13.92577-41.8213,2.84422-80.41263-2.02149-100.24175-20.12208,7.96631,11.04738,18.84773,18.94288,31.57228,24.05274-.15616,22.39991-2.66835,43.27637-8.07613,59.59962,24.00637-17.93947,53.62794-37.23878,85.11961-56.28906,37.29984-8.15675,74.5508-28.25439,97.93222-55.69339" style="fill: #005cb9"/>
    <path d="M233.78348,71.01209c-5.61043,10.88627-17.46833,20.30518-17.46833,20.30518s-.69827-.061.11966-1.04c3.42533-4.02589,13.66213-15.45653,14.84379-19.541,1.25974-4.02343-2.22415-6.521-3.47912-7.22412-.542-.3418.47862-.54688.935-.4004a7.28823,7.28823,0,0,1,4.16756,2.40233c1.08644,1.04982,2.02641-.13914,1.56-2.08-2.10687-3.85743-5.92768-7.76612-11.66746-12.561C176.4836,9.4032,93.37565,28.44376,58.22679,65.41153c34.88526-23.081,88.65238-29.60939,88.65238-29.60939,4.94376,2.666,10.66163,5.92776,15.50525,9.19189a191.02689,191.02689,0,0,1,59.48976,14.64114c.65923.55417.8057,2.07517.42483,2.07517-35.42229-11.8164-62.09716-6.90427-62.09716-6.90427-4.84377,3.4253-9.58011,6.90427-14.3604,10.50536C103.71512,63.11172,72.20632,71.01209,53.54411,82.057c-18.02,10.62013-28.08348,33.20314,7.06061,60.57128,8.72076,5.8765,24.55563,10.62259,60.20993,11.15967,39.72665-4.56054,82.27781-23.728,111.44042-69.668a35.70164,35.70164,0,0,0,3.94285-10.76169c.18552-2.64406-1.88962-3.64259-2.41444-2.34623" style="fill: #ce0e2d"/>
    <path d="M19.69776,9.25207Q16.82288,8.67349,13.975,8.08021c-2.46823-.5005-4.93408-1.00587-7.39739-1.55762C19.185,30.18958,27.95449,56.87171,33.46971,83.837A94.01651,94.01651,0,0,1,43.63319,69.99915C37.70313,44.90638,29.44371,23.0314,19.69776,9.25207" style="fill: #ce0e2d"/>
    <path d="M31.5567,227.84387c4.4018-3.52781,9.077-7.14354,13.977-10.80077,5.40525-16.32322,7.91743-37.19971,8.07374-59.59962a78.4504,78.4504,0,0,1-12.815-6.53564c.47117,29.86818-2.88815,56.98487-9.23574,76.936" style="fill: #ce0e2d"/>
    <path d="M143.94021,55.77234c-27.48549-1.4624-57.96641,6.7969-70.58844,10.93995C95.82973,53.92665,128.696,46.24845,144.98016,45.223l7.65875,4.12844Z" style="fill: #fff"/>
    <path d="M193.97831,116.673,191.449,79.693l-.00477-.06348H171.073l-.017.0488-2.39506,8.4497-.02444.08546h3.10794l-9.81689,15.56642-1.394-24.0869-.00253-.06348h-20.669l-.0146.0488-2.33159,8.4082-.02682.0928h.09522l3.0005.03416-13.33013,20.21972-11.00585-.03662c-1.17675,0-5.55411-1.11084-5.55411-6.53565,0-5.63964,5.31986-13.49117,10.55166-13.49117-.00239,0,1.72615.03661,2.14606.04638l-1.14008,4.10642-.027.0928h9.9878l.01952-.0513,3.53276-12.84424.02683-.0903h-.09761l-15.21483-.06106a20.2924,20.2924,0,0,0-12.168,4.24806,21.75125,21.75125,0,0,0-6.76274,8.20067l3.55467-12.29246.027-.09279h-.09522l-13.50835-.00242H91.471l-.01461.0488-2.38046,8.4497-.02428.09034.09521-.00488,3.396-.01218L89.11258,100.2887,80.36754,79.715l-.01952-.0415H67.616l-.01222.05129-2.373,8.40821-.02682.0903h3.45945L60.86549,116.6437l-.02682.09276H71.095l.00984-.05369L75.9413,99.11684l7.2655,17.57324.01952.04638h.05126l11.233-.00243h.06109l.00969-.05617L99.47157,99.483a25.059,25.059,0,0,0,.11221,7.39016,11.17211,11.17211,0,0,0,4.57272,7.17286,14.65933,14.65933,0,0,0,8.56205,2.69041h20.44186l.02444-.03174,3.48151-5.271h14.2847l.288,5.18068.00492.06836h12.871l.01714-.03907,3.22744-5.21h14.61923l.57131,5.23437.00477.06836h.0611l11.28912.01221h.07808Zm-12.102-14.36521h-7.99566l7.60987-11.5332Zm-31.28171.16354h-8.02979l7.62448-11.5747Z" style="fill: #fff"/>
    <path d="M205.08325,109.07972a3.808,3.808,0,0,0-2.65613-1.062,3.7477,3.7477,0,1,0,3.78162,3.74269,3.67419,3.67419,0,0,0-1.12549-2.68068m-2.65613,5.70312a2.92559,2.92559,0,0,1-2.95416-3.02244,3.04139,3.04139,0,0,1,.852-2.15579,2.92834,2.92834,0,0,1,2.10211-.85935,2.86115,2.86115,0,0,1,2.07275.85935,3.02525,3.02525,0,0,1,.85682,2.15579,2.91448,2.91448,0,0,1-2.92957,3.02244m.6786-2.72948a1.13713,1.13713,0,0,0,1.07422-1.20361c0-.86672-.50038-1.272-1.56238-1.272h-1.67728v4.375h.76175V112.1095h.65178l1.10834,1.81641.01222.02686h.857l-.05364-.08788Zm-1.40369-.60793v-1.20115h.82031c.59068,0,.869.17822.869.56151,0,.59326-.40531.63964-.979.63964Z" style="fill: #fff"/>
  </g>
</svg>
