<svg width="244.04" height="336" xmlns="http://www.w3.org/2000/svg"><defs><clipPath clipPathUnits="userSpaceOnUse" id="a"><path d="M915.168 263.121c-228.031 0-447.895 71.77-630.633 204.109v1585.88c182.719 132.33 402.621 204.12 630.633 204.12.02 0-.012 0 0 0 228.032 0 447.902-71.78 630.632-204.12V467.23c-182.72-132.332-402.61-204.109-630.624-204.109h-.008z"/></clipPath><clipPath clipPathUnits="userSpaceOnUse" id="b"><path d="M915.168 263.121c-228.031 0-447.895 71.77-630.633 204.109v1585.88c182.719 132.33 402.621 204.12 630.633 204.12.02 0-.012 0 0 0 228.032 0 447.902-71.78 630.632-204.12V467.23c-182.72-132.332-402.61-204.109-630.624-204.109h-.008z"/></clipPath><clipPath clipPathUnits="userSpaceOnUse" id="c"><path d="M915.168 263.121c-228.031 0-447.895 71.77-630.633 204.109v1585.88c182.719 132.33 402.621 204.12 630.633 204.12.02 0-.012 0 0 0 228.032 0 447.902-71.78 630.632-204.12V467.23c-182.72-132.332-402.61-204.109-630.624-204.109h-.008z"/></clipPath><clipPath clipPathUnits="userSpaceOnUse" id="d"><path d="M915.168 263.121c-228.031 0-447.895 71.77-630.633 204.109v1585.88c182.719 132.33 402.621 204.12 630.633 204.12.02 0-.012 0 0 0 228.032 0 447.902-71.78 630.632-204.12V467.23c-182.72-132.332-402.61-204.109-630.624-204.109h-.008z"/></clipPath><clipPath clipPathUnits="userSpaceOnUse" id="e"><path d="M915.168 263.121c-228.031 0-447.895 71.77-630.633 204.109v1585.88c182.719 132.33 402.621 204.12 630.633 204.12.02 0-.012 0 0 0 228.032 0 447.902-71.78 630.632-204.12V467.23c-182.72-132.332-402.61-204.109-630.624-204.109h-.008z"/></clipPath><clipPath clipPathUnits="userSpaceOnUse" id="f"><path d="M915.168 263.121c-228.031 0-447.895 71.77-630.633 204.109v1585.88c182.719 132.33 402.621 204.12 630.633 204.12.02 0-.012 0 0 0 228.032 0 447.902-71.78 630.632-204.12V467.23c-182.72-132.332-402.61-204.109-630.624-204.109h-.008z"/></clipPath><clipPath clipPathUnits="userSpaceOnUse" id="g"><path d="M915.168 263.121c-228.031 0-447.895 71.77-630.633 204.109v1585.88c182.719 132.33 402.621 204.12 630.633 204.12.02 0-.012 0 0 0 228.032 0 447.902-71.78 630.632-204.12V467.23c-182.72-132.332-402.61-204.109-630.624-204.109h-.008z"/></clipPath><clipPath clipPathUnits="userSpaceOnUse" id="h"><path d="M915.168 263.121c-228.031 0-447.895 71.77-630.633 204.109v1585.88c182.719 132.33 402.621 204.12 630.633 204.12.02 0-.012 0 0 0 228.032 0 447.902-71.78 630.632-204.12V467.23c-182.72-132.332-402.61-204.109-630.624-204.109h-.008z"/></clipPath><clipPath clipPathUnits="userSpaceOnUse" id="i"><path d="M915.168 263.121c-228.031 0-447.895 71.77-630.633 204.109v1585.88c182.719 132.33 402.621 204.12 630.633 204.12.02 0-.012 0 0 0 228.032 0 447.902-71.78 630.632-204.12V467.23c-182.72-132.332-402.61-204.109-630.624-204.109h-.008z"/></clipPath><clipPath clipPathUnits="userSpaceOnUse" id="j"><path d="M915.168 263.121c-228.031 0-447.895 71.77-630.633 204.109v1585.88c182.719 132.33 402.621 204.12 630.633 204.12.02 0-.012 0 0 0 228.032 0 447.902-71.78 630.632-204.12V467.23c-182.72-132.332-402.61-204.109-630.624-204.109h-.008z"/></clipPath><clipPath clipPathUnits="userSpaceOnUse" id="k"><path d="M915.168 263.121c-228.031 0-447.895 71.77-630.633 204.109v1585.88c182.719 132.33 402.621 204.12 630.633 204.12.02 0-.012 0 0 0 228.032 0 447.902-71.78 630.632-204.12V467.23c-182.72-132.332-402.61-204.109-630.624-204.109h-.008z"/></clipPath><clipPath clipPathUnits="userSpaceOnUse" id="l"><path d="M915.168 263.121c-228.031 0-447.895 71.77-630.633 204.109v1585.88c182.719 132.33 402.621 204.12 630.633 204.12.02 0-.012 0 0 0 228.032 0 447.902-71.78 630.632-204.12V467.23c-182.72-132.332-402.61-204.109-630.624-204.109h-.008z"/></clipPath><clipPath clipPathUnits="userSpaceOnUse" id="m"><path d="M915.168 263.121c-228.031 0-447.895 71.77-630.633 204.109v1585.88c182.719 132.33 402.621 204.12 630.633 204.12.02 0-.012 0 0 0 228.032 0 447.902-71.78 630.632-204.12V467.23c-182.72-132.332-402.61-204.109-630.624-204.109h-.008z"/></clipPath><clipPath clipPathUnits="userSpaceOnUse" id="n"><path d="M915.168 263.121c-228.031 0-447.895 71.77-630.633 204.109v1585.88c182.719 132.33 402.621 204.12 630.633 204.12.02 0-.012 0 0 0 228.032 0 447.902-71.78 630.632-204.12V467.23c-182.72-132.332-402.61-204.109-630.624-204.109h-.008z"/></clipPath><clipPath clipPathUnits="userSpaceOnUse" id="o"><path d="M915.168 263.121c-228.031 0-447.895 71.77-630.633 204.109v1585.88c182.719 132.33 402.621 204.12 630.633 204.12.02 0-.012 0 0 0 228.032 0 447.902-71.78 630.632-204.12V467.23c-182.72-132.332-402.61-204.109-630.624-204.109h-.008z"/></clipPath><clipPath clipPathUnits="userSpaceOnUse" id="p"><path d="M915.168 263.121c-228.031 0-447.895 71.77-630.633 204.109v1585.88c182.719 132.33 402.621 204.12 630.633 204.12.02 0-.012 0 0 0 228.032 0 447.902-71.78 630.632-204.12V467.23c-182.72-132.332-402.61-204.109-630.624-204.109h-.008z"/></clipPath><clipPath clipPathUnits="userSpaceOnUse" id="q"><path d="M915.168 263.121c-228.031 0-447.895 71.77-630.633 204.109v1585.88c182.719 132.33 402.621 204.12 630.633 204.12.02 0-.012 0 0 0 228.032 0 447.902-71.78 630.632-204.12V467.23c-182.72-132.332-402.61-204.109-630.624-204.109h-.008z"/></clipPath><clipPath clipPathUnits="userSpaceOnUse" id="r"><path d="M915.168 263.121c-228.031 0-447.895 71.77-630.633 204.109v1585.88c182.719 132.33 402.621 204.12 630.633 204.12.02 0-.012 0 0 0 228.032 0 447.902-71.78 630.632-204.12V467.23c-182.72-132.332-402.61-204.109-630.624-204.109h-.008z"/></clipPath><clipPath clipPathUnits="userSpaceOnUse" id="s"><path d="M915.168 263.121c-228.031 0-447.895 71.77-630.633 204.109v1585.88c182.719 132.33 402.621 204.12 630.633 204.12.02 0-.012 0 0 0 228.032 0 447.902-71.78 630.632-204.12V467.23c-182.72-132.332-402.61-204.109-630.624-204.109h-.008z"/></clipPath><clipPath clipPathUnits="userSpaceOnUse" id="t"><path d="M915.168 263.121c-228.031 0-447.895 71.77-630.633 204.109v1585.88c182.719 132.33 402.621 204.12 630.633 204.12.02 0-.012 0 0 0 228.032 0 447.902-71.78 630.632-204.12V467.23c-182.72-132.332-402.61-204.109-630.624-204.109h-.008z"/></clipPath><clipPath clipPathUnits="userSpaceOnUse" id="u"><path d="M915.168 263.121c-228.031 0-447.895 71.77-630.633 204.109v1585.88c182.719 132.33 402.621 204.12 630.633 204.12.02 0-.012 0 0 0 228.032 0 447.902-71.78 630.632-204.12V467.23c-182.72-132.332-402.61-204.109-630.624-204.109h-.008z"/></clipPath><clipPath clipPathUnits="userSpaceOnUse" id="v"><path d="M915.168 263.121c-228.031 0-447.895 71.77-630.633 204.109v1585.88c182.719 132.33 402.621 204.12 630.633 204.12.02 0-.012 0 0 0 228.032 0 447.902-71.78 630.632-204.12V467.23c-182.72-132.332-402.61-204.109-630.624-204.109h-.008z"/></clipPath><clipPath clipPathUnits="userSpaceOnUse" id="w"><path d="M915.168 263.121c-228.031 0-447.895 71.77-630.633 204.109v1585.88c182.719 132.33 402.621 204.12 630.633 204.12.02 0-.012 0 0 0 228.032 0 447.902-71.78 630.632-204.12V467.23c-182.72-132.332-402.61-204.109-630.624-204.109h-.008z"/></clipPath><clipPath clipPathUnits="userSpaceOnUse" id="x"><path d="M915.168 263.121c-228.031 0-447.895 71.77-630.633 204.109v1585.88c182.719 132.33 402.621 204.12 630.633 204.12.02 0-.012 0 0 0 228.032 0 447.902-71.78 630.632-204.12V467.23c-182.72-132.332-402.61-204.109-630.624-204.109h-.008z"/></clipPath><clipPath clipPathUnits="userSpaceOnUse" id="y"><path d="M915.168 263.121c-228.031 0-447.895 71.77-630.633 204.109v1585.88c182.719 132.33 402.621 204.12 630.633 204.12.02 0-.012 0 0 0 228.032 0 447.902-71.78 630.632-204.12V467.23c-182.72-132.332-402.61-204.109-630.624-204.109h-.008z"/></clipPath><clipPath clipPathUnits="userSpaceOnUse" id="z"><path d="M915.168 263.121c-228.031 0-447.895 71.77-630.633 204.109v1585.88c182.719 132.33 402.621 204.12 630.633 204.12.02 0-.012 0 0 0 228.032 0 447.902-71.78 630.632-204.12V467.23c-182.72-132.332-402.61-204.109-630.624-204.109h-.008z"/></clipPath><clipPath clipPathUnits="userSpaceOnUse" id="A"><path d="M915.168 263.121c-228.031 0-447.895 71.77-630.633 204.109v1585.88c182.719 132.33 402.621 204.12 630.633 204.12.02 0-.012 0 0 0 228.032 0 447.902-71.78 630.632-204.12V467.23c-182.72-132.332-402.61-204.109-630.624-204.109h-.008z"/></clipPath><clipPath clipPathUnits="userSpaceOnUse" id="B"><path d="M915.168 263.121c-228.031 0-447.895 71.77-630.633 204.109v1585.88c182.719 132.33 402.621 204.12 630.633 204.12.02 0-.012 0 0 0 228.032 0 447.902-71.78 630.632-204.12V467.23c-182.72-132.332-402.61-204.109-630.624-204.109h-.008z"/></clipPath><clipPath clipPathUnits="userSpaceOnUse" id="C"><path d="M915.168 263.121c-228.031 0-447.895 71.77-630.633 204.109v1585.88c182.719 132.33 402.621 204.12 630.633 204.12.02 0-.012 0 0 0 228.032 0 447.902-71.78 630.632-204.12V467.23c-182.72-132.332-402.61-204.109-630.624-204.109h-.008z"/></clipPath><clipPath clipPathUnits="userSpaceOnUse" id="D"><path d="M915.168 263.121c-228.031 0-447.895 71.77-630.633 204.109v1585.88c182.719 132.33 402.621 204.12 630.633 204.12.02 0-.012 0 0 0 228.032 0 447.902-71.78 630.632-204.12V467.23c-182.72-132.332-402.61-204.109-630.624-204.109h-.008z"/></clipPath><clipPath clipPathUnits="userSpaceOnUse" id="E"><path d="M915.168 263.121c-228.031 0-447.895 71.77-630.633 204.109v1585.88c182.719 132.33 402.621 204.12 630.633 204.12.02 0-.012 0 0 0 228.032 0 447.902-71.78 630.632-204.12V467.23c-182.72-132.332-402.61-204.109-630.624-204.109h-.008z"/></clipPath><clipPath clipPathUnits="userSpaceOnUse" id="F"><path d="M915.168 263.121c-228.031 0-447.895 71.77-630.633 204.109v1585.88c182.719 132.33 402.621 204.12 630.633 204.12.02 0-.012 0 0 0 228.032 0 447.902-71.78 630.632-204.12V467.23c-182.72-132.332-402.61-204.109-630.624-204.109h-.008z"/></clipPath><clipPath clipPathUnits="userSpaceOnUse" id="G"><path d="M915.168 263.121c-228.031 0-447.895 71.77-630.633 204.109v1585.88c182.719 132.33 402.621 204.12 630.633 204.12.02 0-.012 0 0 0 228.032 0 447.902-71.78 630.632-204.12V467.23c-182.72-132.332-402.61-204.109-630.624-204.109h-.008z"/></clipPath><clipPath clipPathUnits="userSpaceOnUse" id="H"><path d="M915.168 263.121c-228.031 0-447.895 71.77-630.633 204.109v1585.88c182.719 132.33 402.621 204.12 630.633 204.12.02 0-.012 0 0 0 228.032 0 447.902-71.78 630.632-204.12V467.23c-182.72-132.332-402.61-204.109-630.624-204.109h-.008z"/></clipPath><clipPath clipPathUnits="userSpaceOnUse" id="I"><path d="M915.168 263.121c-228.031 0-447.895 71.77-630.633 204.109v1585.88c182.719 132.33 402.621 204.12 630.633 204.12.02 0-.012 0 0 0 228.032 0 447.902-71.78 630.632-204.12V467.23c-182.72-132.332-402.61-204.109-630.624-204.109h-.008z"/></clipPath><clipPath clipPathUnits="userSpaceOnUse" id="J"><path d="M915.168 263.121c-228.031 0-447.895 71.77-630.633 204.109v1585.88c182.719 132.33 402.621 204.12 630.633 204.12.02 0-.012 0 0 0 228.032 0 447.902-71.78 630.632-204.12V467.23c-182.72-132.332-402.61-204.109-630.624-204.109h-.008z"/></clipPath><clipPath clipPathUnits="userSpaceOnUse" id="K"><path d="M915.168 263.121c-228.031 0-447.895 71.77-630.633 204.109v1585.88c182.719 132.33 402.621 204.12 630.633 204.12.02 0-.012 0 0 0 228.032 0 447.902-71.78 630.632-204.12V467.23c-182.72-132.332-402.61-204.109-630.624-204.109h-.008z"/></clipPath><clipPath clipPathUnits="userSpaceOnUse" id="L"><path d="M915.168 263.121c-228.031 0-447.895 71.77-630.633 204.109v1585.88c182.719 132.33 402.621 204.12 630.633 204.12.02 0-.012 0 0 0 228.032 0 447.902-71.78 630.632-204.12V467.23c-182.72-132.332-402.61-204.109-630.624-204.109h-.008z"/></clipPath><clipPath clipPathUnits="userSpaceOnUse" id="M"><path d="M915.168 263.121c-228.031 0-447.895 71.77-630.633 204.109v1585.88c182.719 132.33 402.621 204.12 630.633 204.12.02 0-.012 0 0 0 228.032 0 447.902-71.78 630.632-204.12V467.23c-182.72-132.332-402.61-204.109-630.624-204.109h-.008z"/></clipPath><clipPath clipPathUnits="userSpaceOnUse" id="N"><path d="M915.168 263.121c-228.031 0-447.895 71.77-630.633 204.109v1585.88c182.719 132.33 402.621 204.12 630.633 204.12.02 0-.012 0 0 0 228.032 0 447.902-71.78 630.632-204.12V467.23c-182.72-132.332-402.61-204.109-630.624-204.109h-.008z"/></clipPath><clipPath clipPathUnits="userSpaceOnUse" id="O"><path d="M915.168 263.121c-228.031 0-447.895 71.77-630.633 204.109v1585.88c182.719 132.33 402.621 204.12 630.633 204.12.02 0-.012 0 0 0 228.032 0 447.902-71.78 630.632-204.12V467.23c-182.72-132.332-402.61-204.109-630.624-204.109h-.008z"/></clipPath><clipPath clipPathUnits="userSpaceOnUse" id="P"><path d="M915.168 263.121c-228.031 0-447.895 71.77-630.633 204.109v1585.88c182.719 132.33 402.621 204.12 630.633 204.12.02 0-.012 0 0 0 228.032 0 447.902-71.78 630.632-204.12V467.23c-182.72-132.332-402.61-204.109-630.624-204.109h-.008z"/></clipPath><clipPath clipPathUnits="userSpaceOnUse" id="Q"><path d="M915.168 263.121c-228.031 0-447.895 71.77-630.633 204.109v1585.88c182.719 132.33 402.621 204.12 630.633 204.12.02 0-.012 0 0 0 228.032 0 447.902-71.78 630.632-204.12V467.23c-182.72-132.332-402.61-204.109-630.624-204.109h-.008z"/></clipPath><clipPath clipPathUnits="userSpaceOnUse" id="R"><path d="M915.168 263.121c-228.031 0-447.895 71.77-630.633 204.109v1585.88c182.719 132.33 402.621 204.12 630.633 204.12.02 0-.012 0 0 0 228.032 0 447.902-71.78 630.632-204.12V467.23c-182.72-132.332-402.61-204.109-630.624-204.109h-.008z"/></clipPath><clipPath clipPathUnits="userSpaceOnUse" id="S"><path d="M915.168 263.121c-228.031 0-447.895 71.77-630.633 204.109v1585.88c182.719 132.33 402.621 204.12 630.633 204.12.02 0-.012 0 0 0 228.032 0 447.902-71.78 630.632-204.12V467.23c-182.72-132.332-402.61-204.109-630.624-204.109h-.008z"/></clipPath><clipPath clipPathUnits="userSpaceOnUse" id="T"><path d="M915.168 263.121c-228.031 0-447.895 71.77-630.633 204.109v1585.88c182.719 132.33 402.621 204.12 630.633 204.12.02 0-.012 0 0 0 228.032 0 447.902-71.78 630.632-204.12V467.23c-182.72-132.332-402.61-204.109-630.624-204.109h-.008z"/></clipPath><clipPath clipPathUnits="userSpaceOnUse" id="U"><path d="M915.168 263.121c-228.031 0-447.895 71.77-630.633 204.109v1585.88c182.719 132.33 402.621 204.12 630.633 204.12.02 0-.012 0 0 0 228.032 0 447.902-71.78 630.632-204.12V467.23c-182.72-132.332-402.61-204.109-630.624-204.109h-.008z"/></clipPath><clipPath clipPathUnits="userSpaceOnUse" id="V"><path d="M915.168 263.121c-228.031 0-447.895 71.77-630.633 204.109v1585.88c182.719 132.33 402.621 204.12 630.633 204.12.02 0-.012 0 0 0 228.032 0 447.902-71.78 630.632-204.12V467.23c-182.72-132.332-402.61-204.109-630.624-204.109h-.008z"/></clipPath><clipPath clipPathUnits="userSpaceOnUse" id="W"><path d="M915.168 263.121c-228.031 0-447.895 71.77-630.633 204.109v1585.88c182.719 132.33 402.621 204.12 630.633 204.12.02 0-.012 0 0 0 228.032 0 447.902-71.78 630.632-204.12V467.23c-182.72-132.332-402.61-204.109-630.624-204.109h-.008z"/></clipPath><clipPath clipPathUnits="userSpaceOnUse" id="X"><path d="M915.168 263.121c-228.031 0-447.895 71.77-630.633 204.109v1585.88c182.719 132.33 402.621 204.12 630.633 204.12.02 0-.012 0 0 0 228.032 0 447.902-71.78 630.632-204.12V467.23c-182.72-132.332-402.61-204.109-630.624-204.109h-.008z"/></clipPath><clipPath clipPathUnits="userSpaceOnUse" id="Y"><path d="M915.168 263.121c-228.031 0-447.895 71.77-630.633 204.109v1585.88c182.719 132.33 402.621 204.12 630.633 204.12.02 0-.012 0 0 0 228.032 0 447.902-71.78 630.632-204.12V467.23c-182.72-132.332-402.61-204.109-630.624-204.109h-.008z"/></clipPath><clipPath clipPathUnits="userSpaceOnUse" id="Z"><path d="M915.168 263.121c-228.031 0-447.895 71.77-630.633 204.109v1585.88c182.719 132.33 402.621 204.12 630.633 204.12.02 0-.012 0 0 0 228.032 0 447.902-71.78 630.632-204.12V467.23c-182.72-132.332-402.61-204.109-630.624-204.109h-.008z"/></clipPath><clipPath clipPathUnits="userSpaceOnUse" id="aa"><path d="M915.168 263.121c-228.031 0-447.895 71.77-630.633 204.109v1585.88c182.719 132.33 402.621 204.12 630.633 204.12.02 0-.012 0 0 0 228.032 0 447.902-71.78 630.632-204.12V467.23c-182.72-132.332-402.61-204.109-630.624-204.109h-.008z"/></clipPath><clipPath clipPathUnits="userSpaceOnUse" id="ab"><path d="M915.168 263.121c-228.031 0-447.895 71.77-630.633 204.109v1585.88c182.719 132.33 402.621 204.12 630.633 204.12.02 0-.012 0 0 0 228.032 0 447.902-71.78 630.632-204.12V467.23c-182.72-132.332-402.61-204.109-630.624-204.109h-.008z"/></clipPath><clipPath clipPathUnits="userSpaceOnUse" id="ac"><path d="M915.168 263.121c-228.031 0-447.895 71.77-630.633 204.109v1585.88c182.719 132.33 402.621 204.12 630.633 204.12.02 0-.012 0 0 0 228.032 0 447.902-71.78 630.632-204.12V467.23c-182.72-132.332-402.61-204.109-630.624-204.109h-.008z"/></clipPath><clipPath clipPathUnits="userSpaceOnUse" id="ad"><path d="M915.168 263.121c-228.031 0-447.895 71.77-630.633 204.109v1585.88c182.719 132.33 402.621 204.12 630.633 204.12.02 0-.012 0 0 0 228.032 0 447.902-71.78 630.632-204.12V467.23c-182.72-132.332-402.61-204.109-630.624-204.109h-.008z"/></clipPath><clipPath clipPathUnits="userSpaceOnUse" id="ae"><path d="M915.168 263.121c-228.031 0-447.895 71.77-630.633 204.109v1585.88c182.719 132.33 402.621 204.12 630.633 204.12.02 0-.012 0 0 0 228.032 0 447.902-71.78 630.632-204.12V467.23c-182.72-132.332-402.61-204.109-630.624-204.109h-.008z"/></clipPath><clipPath clipPathUnits="userSpaceOnUse" id="af"><path d="M915.168 263.121c-228.031 0-447.895 71.77-630.633 204.109v1585.88c182.719 132.33 402.621 204.12 630.633 204.12.02 0-.012 0 0 0 228.032 0 447.902-71.78 630.632-204.12V467.23c-182.72-132.332-402.61-204.109-630.624-204.109h-.008z"/></clipPath><clipPath clipPathUnits="userSpaceOnUse" id="ag"><path d="M915.168 263.121c-228.031 0-447.895 71.77-630.633 204.109v1585.88c182.719 132.33 402.621 204.12 630.633 204.12.02 0-.012 0 0 0 228.032 0 447.902-71.78 630.632-204.12V467.23c-182.72-132.332-402.61-204.109-630.624-204.109h-.008z"/></clipPath><clipPath clipPathUnits="userSpaceOnUse" id="ah"><path d="M915.168 263.121c-228.031 0-447.895 71.77-630.633 204.109v1585.88c182.719 132.33 402.621 204.12 630.633 204.12.02 0-.012 0 0 0 228.032 0 447.902-71.78 630.632-204.12V467.23c-182.72-132.332-402.61-204.109-630.624-204.109h-.008z"/></clipPath><clipPath clipPathUnits="userSpaceOnUse" id="ai"><path d="M915.168 263.121c-228.031 0-447.895 71.77-630.633 204.109v1585.88c182.719 132.33 402.621 204.12 630.633 204.12.02 0-.012 0 0 0 228.032 0 447.902-71.78 630.632-204.12V467.23c-182.72-132.332-402.61-204.109-630.624-204.109h-.008z"/></clipPath><clipPath clipPathUnits="userSpaceOnUse" id="aj"><path d="M915.168 263.121c-228.031 0-447.895 71.77-630.633 204.109v1585.88c182.719 132.33 402.621 204.12 630.633 204.12.02 0-.012 0 0 0 228.032 0 447.902-71.78 630.632-204.12V467.23c-182.72-132.332-402.61-204.109-630.624-204.109h-.008z"/></clipPath><clipPath clipPathUnits="userSpaceOnUse" id="ak"><path d="M915.168 263.121c-228.031 0-447.895 71.77-630.633 204.109v1585.88c182.719 132.33 402.621 204.12 630.633 204.12.02 0-.012 0 0 0 228.032 0 447.902-71.78 630.632-204.12V467.23c-182.72-132.332-402.61-204.109-630.624-204.109h-.008z"/></clipPath><clipPath clipPathUnits="userSpaceOnUse" id="al"><path d="M915.168 263.121c-228.031 0-447.895 71.77-630.633 204.109v1585.88c182.719 132.33 402.621 204.12 630.633 204.12.02 0-.012 0 0 0 228.032 0 447.902-71.78 630.632-204.12V467.23c-182.72-132.332-402.61-204.109-630.624-204.109h-.008z"/></clipPath><clipPath clipPathUnits="userSpaceOnUse" id="am"><path d="M915.168 263.121c-228.031 0-447.895 71.77-630.633 204.109v1585.88c182.719 132.33 402.621 204.12 630.633 204.12.02 0-.012 0 0 0 228.032 0 447.902-71.78 630.632-204.12V467.23c-182.72-132.332-402.61-204.109-630.624-204.109h-.008z"/></clipPath><clipPath clipPathUnits="userSpaceOnUse" id="an"><path d="M915.168 263.121c-228.031 0-447.895 71.77-630.633 204.109v1585.88c182.719 132.33 402.621 204.12 630.633 204.12.02 0-.012 0 0 0 228.032 0 447.902-71.78 630.632-204.12V467.23c-182.72-132.332-402.61-204.109-630.624-204.109h-.008z"/></clipPath><clipPath clipPathUnits="userSpaceOnUse" id="ao"><path d="M915.168 263.121c-228.031 0-447.895 71.77-630.633 204.109v1585.88c182.719 132.33 402.621 204.12 630.633 204.12.02 0-.012 0 0 0 228.032 0 447.902-71.78 630.632-204.12V467.23c-182.72-132.332-402.61-204.109-630.624-204.109h-.008z"/></clipPath><clipPath clipPathUnits="userSpaceOnUse" id="ap"><path d="M915.168 263.121c-228.031 0-447.895 71.77-630.633 204.109v1585.88c182.719 132.33 402.621 204.12 630.633 204.12.02 0-.012 0 0 0 228.032 0 447.902-71.78 630.632-204.12V467.23c-182.72-132.332-402.61-204.109-630.624-204.109h-.008z"/></clipPath><clipPath clipPathUnits="userSpaceOnUse" id="aq"><path d="M915.168 263.121c-228.031 0-447.895 71.77-630.633 204.109v1585.88c182.719 132.33 402.621 204.12 630.633 204.12.02 0-.012 0 0 0 228.032 0 447.902-71.78 630.632-204.12V467.23c-182.72-132.332-402.61-204.109-630.624-204.109h-.008z"/></clipPath><clipPath clipPathUnits="userSpaceOnUse" id="ar"><path d="M915.168 263.121c-228.031 0-447.895 71.77-630.633 204.109v1585.88c182.719 132.33 402.621 204.12 630.633 204.12.02 0-.012 0 0 0 228.032 0 447.902-71.78 630.632-204.12V467.23c-182.72-132.332-402.61-204.109-630.624-204.109h-.008z"/></clipPath><clipPath clipPathUnits="userSpaceOnUse" id="as"><path d="M915.168 263.121c-228.031 0-447.895 71.77-630.633 204.109v1585.88c182.719 132.33 402.621 204.12 630.633 204.12.02 0-.012 0 0 0 228.032 0 447.902-71.78 630.632-204.12V467.23c-182.72-132.332-402.61-204.109-630.624-204.109h-.008z"/></clipPath><clipPath clipPathUnits="userSpaceOnUse" id="at"><path d="M915.168 263.121c-228.031 0-447.895 71.77-630.633 204.109v1585.88c182.719 132.33 402.621 204.12 630.633 204.12.02 0-.012 0 0 0 228.032 0 447.902-71.78 630.632-204.12V467.23c-182.72-132.332-402.61-204.109-630.624-204.109h-.008z"/></clipPath><clipPath clipPathUnits="userSpaceOnUse" id="au"><path d="M915.168 263.121c-228.031 0-447.895 71.77-630.633 204.109v1585.88c182.719 132.33 402.621 204.12 630.633 204.12.02 0-.012 0 0 0 228.032 0 447.902-71.78 630.632-204.12V467.23c-182.72-132.332-402.61-204.109-630.624-204.109h-.008z"/></clipPath><clipPath clipPathUnits="userSpaceOnUse" id="av"><path d="M915.168 263.121c-228.031 0-447.895 71.77-630.633 204.109v1585.88c182.719 132.33 402.621 204.12 630.633 204.12.02 0-.012 0 0 0 228.032 0 447.902-71.78 630.632-204.12V467.23c-182.72-132.332-402.61-204.109-630.624-204.109h-.008z"/></clipPath><clipPath clipPathUnits="userSpaceOnUse" id="aw"><path d="M915.168 263.121c-228.031 0-447.895 71.77-630.633 204.109v1585.88c182.719 132.33 402.621 204.12 630.633 204.12.02 0-.012 0 0 0 228.032 0 447.902-71.78 630.632-204.12V467.23c-182.72-132.332-402.61-204.109-630.624-204.109h-.008z"/></clipPath><clipPath clipPathUnits="userSpaceOnUse" id="ax"><path d="M915.168 263.121c-228.031 0-447.895 71.77-630.633 204.109v1585.88c182.719 132.33 402.621 204.12 630.633 204.12.02 0-.012 0 0 0 228.032 0 447.902-71.78 630.632-204.12V467.23c-182.72-132.332-402.61-204.109-630.624-204.109h-.008z"/></clipPath><clipPath clipPathUnits="userSpaceOnUse" id="ay"><path d="M915.168 263.121c-228.031 0-447.895 71.77-630.633 204.109v1585.88c182.719 132.33 402.621 204.12 630.633 204.12.02 0-.012 0 0 0 228.032 0 447.902-71.78 630.632-204.12V467.23c-182.72-132.332-402.61-204.109-630.624-204.109h-.008z"/></clipPath><clipPath clipPathUnits="userSpaceOnUse" id="az"><path d="M915.168 263.121c-228.031 0-447.895 71.77-630.633 204.109v1585.88c182.719 132.33 402.621 204.12 630.633 204.12.02 0-.012 0 0 0 228.032 0 447.902-71.78 630.632-204.12V467.23c-182.72-132.332-402.61-204.109-630.624-204.109h-.008z"/></clipPath><clipPath clipPathUnits="userSpaceOnUse" id="aA"><path d="M915.168 263.121c-228.031 0-447.895 71.77-630.633 204.109v1585.88c182.719 132.33 402.621 204.12 630.633 204.12.02 0-.012 0 0 0 228.032 0 447.902-71.78 630.632-204.12V467.23c-182.72-132.332-402.61-204.109-630.624-204.109h-.008z"/></clipPath><clipPath clipPathUnits="userSpaceOnUse" id="aB"><path d="M915.168 263.121c-228.031 0-447.895 71.77-630.633 204.109v1585.88c182.719 132.33 402.621 204.12 630.633 204.12.02 0-.012 0 0 0 228.032 0 447.902-71.78 630.632-204.12V467.23c-182.72-132.332-402.61-204.109-630.624-204.109h-.008z"/></clipPath><clipPath clipPathUnits="userSpaceOnUse" id="aC"><path d="M915.168 263.121c-228.031 0-447.895 71.77-630.633 204.109v1585.88c182.719 132.33 402.621 204.12 630.633 204.12.02 0-.012 0 0 0 228.032 0 447.902-71.78 630.632-204.12V467.23c-182.72-132.332-402.61-204.109-630.624-204.109h-.008z"/></clipPath><clipPath clipPathUnits="userSpaceOnUse" id="aD"><path d="M915.168 263.121c-228.031 0-447.895 71.77-630.633 204.109v1585.88c182.719 132.33 402.621 204.12 630.633 204.12.02 0-.012 0 0 0 228.032 0 447.902-71.78 630.632-204.12V467.23c-182.72-132.332-402.61-204.109-630.624-204.109h-.008z"/></clipPath><clipPath clipPathUnits="userSpaceOnUse" id="aE"><path d="M915.168 263.121c-228.031 0-447.895 71.77-630.633 204.109v1585.88c182.719 132.33 402.621 204.12 630.633 204.12.02 0-.012 0 0 0 228.032 0 447.902-71.78 630.632-204.12V467.23c-182.72-132.332-402.61-204.109-630.624-204.109h-.008z"/></clipPath><clipPath clipPathUnits="userSpaceOnUse" id="aF"><path d="M915.168 263.121c-228.031 0-447.895 71.77-630.633 204.109v1585.88c182.719 132.33 402.621 204.12 630.633 204.12.02 0-.012 0 0 0 228.032 0 447.902-71.78 630.632-204.12V467.23c-182.72-132.332-402.61-204.109-630.624-204.109h-.008z"/></clipPath><clipPath clipPathUnits="userSpaceOnUse" id="aG"><path d="M915.168 263.121c-228.031 0-447.895 71.77-630.633 204.109v1585.88c182.719 132.33 402.621 204.12 630.633 204.12.02 0-.012 0 0 0 228.032 0 447.902-71.78 630.632-204.12V467.23c-182.72-132.332-402.61-204.109-630.624-204.109h-.008z"/></clipPath><clipPath clipPathUnits="userSpaceOnUse" id="aH"><path d="M915.168 263.121c-228.031 0-447.895 71.77-630.633 204.109v1585.88c182.719 132.33 402.621 204.12 630.633 204.12.02 0-.012 0 0 0 228.032 0 447.902-71.78 630.632-204.12V467.23c-182.72-132.332-402.61-204.109-630.624-204.109h-.008z"/></clipPath><clipPath clipPathUnits="userSpaceOnUse" id="aI"><path d="M915.168 263.121c-228.031 0-447.895 71.77-630.633 204.109v1585.88c182.719 132.33 402.621 204.12 630.633 204.12.02 0-.012 0 0 0 228.032 0 447.902-71.78 630.632-204.12V467.23c-182.72-132.332-402.61-204.109-630.624-204.109h-.008z"/></clipPath><clipPath clipPathUnits="userSpaceOnUse" id="aJ"><path d="M915.168 263.121c-228.031 0-447.895 71.77-630.633 204.109v1585.88c182.719 132.33 402.621 204.12 630.633 204.12.02 0-.012 0 0 0 228.032 0 447.902-71.78 630.632-204.12V467.23c-182.72-132.332-402.61-204.109-630.624-204.109h-.008z"/></clipPath><clipPath clipPathUnits="userSpaceOnUse" id="aK"><path d="M915.168 263.121c-228.031 0-447.895 71.77-630.633 204.109v1585.88c182.719 132.33 402.621 204.12 630.633 204.12.02 0-.012 0 0 0 228.032 0 447.902-71.78 630.632-204.12V467.23c-182.72-132.332-402.61-204.109-630.624-204.109h-.008z"/></clipPath><clipPath clipPathUnits="userSpaceOnUse" id="aL"><path d="M915.168 263.121c-228.031 0-447.895 71.77-630.633 204.109v1585.88c182.719 132.33 402.621 204.12 630.633 204.12.02 0-.012 0 0 0 228.032 0 447.902-71.78 630.632-204.12V467.23c-182.72-132.332-402.61-204.109-630.624-204.109h-.008z"/></clipPath><clipPath clipPathUnits="userSpaceOnUse" id="aM"><path d="M915.168 263.121c-228.031 0-447.895 71.77-630.633 204.109v1585.88c182.719 132.33 402.621 204.12 630.633 204.12.02 0-.012 0 0 0 228.032 0 447.902-71.78 630.632-204.12V467.23c-182.72-132.332-402.61-204.109-630.624-204.109h-.008z"/></clipPath><clipPath clipPathUnits="userSpaceOnUse" id="aN"><path d="M915.168 263.121c-228.031 0-447.895 71.77-630.633 204.109v1585.88c182.719 132.33 402.621 204.12 630.633 204.12.02 0-.012 0 0 0 228.032 0 447.902-71.78 630.632-204.12V467.23c-182.72-132.332-402.61-204.109-630.624-204.109h-.008z"/></clipPath><clipPath clipPathUnits="userSpaceOnUse" id="aO"><path d="M915.168 263.121c-228.031 0-447.895 71.77-630.633 204.109v1585.88c182.719 132.33 402.621 204.12 630.633 204.12.02 0-.012 0 0 0 228.032 0 447.902-71.78 630.632-204.12V467.23c-182.72-132.332-402.61-204.109-630.624-204.109h-.008z"/></clipPath><clipPath clipPathUnits="userSpaceOnUse" id="aP"><path d="M915.168 263.121c-228.031 0-447.895 71.77-630.633 204.109v1585.88c182.719 132.33 402.621 204.12 630.633 204.12.02 0-.012 0 0 0 228.032 0 447.902-71.78 630.632-204.12V467.23c-182.72-132.332-402.61-204.109-630.624-204.109h-.008z"/></clipPath><clipPath clipPathUnits="userSpaceOnUse" id="aQ"><path d="M915.168 263.121c-228.031 0-447.895 71.77-630.633 204.109v1585.88c182.719 132.33 402.621 204.12 630.633 204.12.02 0-.012 0 0 0 228.032 0 447.902-71.78 630.632-204.12V467.23c-182.72-132.332-402.61-204.109-630.624-204.109h-.008z"/></clipPath><clipPath clipPathUnits="userSpaceOnUse" id="aR"><path d="M915.168 263.121c-228.031 0-447.895 71.77-630.633 204.109v1585.88c182.719 132.33 402.621 204.12 630.633 204.12.02 0-.012 0 0 0 228.032 0 447.902-71.78 630.632-204.12V467.23c-182.72-132.332-402.61-204.109-630.624-204.109h-.008z"/></clipPath><clipPath clipPathUnits="userSpaceOnUse" id="aS"><path d="M915.168 263.121c-228.031 0-447.895 71.77-630.633 204.109v1585.88c182.719 132.33 402.621 204.12 630.633 204.12.02 0-.012 0 0 0 228.032 0 447.902-71.78 630.632-204.12V467.23c-182.72-132.332-402.61-204.109-630.624-204.109h-.008z"/></clipPath><clipPath clipPathUnits="userSpaceOnUse" id="aT"><path d="M915.168 263.121c-228.031 0-447.895 71.77-630.633 204.109v1585.88c182.719 132.33 402.621 204.12 630.633 204.12.02 0-.012 0 0 0 228.032 0 447.902-71.78 630.632-204.12V467.23c-182.72-132.332-402.61-204.109-630.624-204.109h-.008z"/></clipPath><clipPath clipPathUnits="userSpaceOnUse" id="aU"><path d="M915.168 263.121c-228.031 0-447.895 71.77-630.633 204.109v1585.88c182.719 132.33 402.621 204.12 630.633 204.12.02 0-.012 0 0 0 228.032 0 447.902-71.78 630.632-204.12V467.23c-182.72-132.332-402.61-204.109-630.624-204.109h-.008z"/></clipPath><clipPath clipPathUnits="userSpaceOnUse" id="aV"><path d="M915.168 263.121c-228.031 0-447.895 71.77-630.633 204.109v1585.88c182.719 132.33 402.621 204.12 630.633 204.12.02 0-.012 0 0 0 228.032 0 447.902-71.78 630.632-204.12V467.23c-182.72-132.332-402.61-204.109-630.624-204.109h-.008z"/></clipPath><clipPath clipPathUnits="userSpaceOnUse" id="aW"><path d="M915.168 263.121c-228.031 0-447.895 71.77-630.633 204.109v1585.88c182.719 132.33 402.621 204.12 630.633 204.12.02 0-.012 0 0 0 228.032 0 447.902-71.78 630.632-204.12V467.23c-182.72-132.332-402.61-204.109-630.624-204.109h-.008z"/></clipPath><clipPath clipPathUnits="userSpaceOnUse" id="aX"><path d="M915.168 263.121c-228.031 0-447.895 71.77-630.633 204.109v1585.88c182.719 132.33 402.621 204.12 630.633 204.12.02 0-.012 0 0 0 228.032 0 447.902-71.78 630.632-204.12V467.23c-182.72-132.332-402.61-204.109-630.624-204.109h-.008z"/></clipPath><clipPath clipPathUnits="userSpaceOnUse" id="aY"><path d="M915.168 263.121c-228.031 0-447.895 71.77-630.633 204.109v1585.88c182.719 132.33 402.621 204.12 630.633 204.12.02 0-.012 0 0 0 228.032 0 447.902-71.78 630.632-204.12V467.23c-182.72-132.332-402.61-204.109-630.624-204.109h-.008z"/></clipPath><clipPath clipPathUnits="userSpaceOnUse" id="aZ"><path d="M915.168 263.121c-228.031 0-447.895 71.77-630.633 204.109v1585.88c182.719 132.33 402.621 204.12 630.633 204.12.02 0-.012 0 0 0 228.032 0 447.902-71.78 630.632-204.12V467.23c-182.72-132.332-402.61-204.109-630.624-204.109h-.008z"/></clipPath><clipPath clipPathUnits="userSpaceOnUse" id="ba"><path d="M915.168 263.121c-228.031 0-447.895 71.77-630.633 204.109v1585.88c182.719 132.33 402.621 204.12 630.633 204.12.02 0-.012 0 0 0 228.032 0 447.902-71.78 630.632-204.12V467.23c-182.72-132.332-402.61-204.109-630.624-204.109h-.008z"/></clipPath><clipPath clipPathUnits="userSpaceOnUse" id="bb"><path d="M915.168 263.121c-228.031 0-447.895 71.77-630.633 204.109v1585.88c182.719 132.33 402.621 204.12 630.633 204.12.02 0-.012 0 0 0 228.032 0 447.902-71.78 630.632-204.12V467.23c-182.72-132.332-402.61-204.109-630.624-204.109h-.008z"/></clipPath><clipPath clipPathUnits="userSpaceOnUse" id="bc"><path d="M915.168 263.121c-228.031 0-447.895 71.77-630.633 204.109v1585.88c182.719 132.33 402.621 204.12 630.633 204.12.02 0-.012 0 0 0 228.032 0 447.902-71.78 630.632-204.12V467.23c-182.72-132.332-402.61-204.109-630.624-204.109h-.008z"/></clipPath><clipPath clipPathUnits="userSpaceOnUse" id="bd"><path d="M915.168 263.121c-228.031 0-447.895 71.77-630.633 204.109v1585.88c182.719 132.33 402.621 204.12 630.633 204.12.02 0-.012 0 0 0 228.032 0 447.902-71.78 630.632-204.12V467.23c-182.72-132.332-402.61-204.109-630.624-204.109h-.008z"/></clipPath><clipPath clipPathUnits="userSpaceOnUse" id="be"><path d="M915.168 263.121c-228.031 0-447.895 71.77-630.633 204.109v1585.88c182.719 132.33 402.621 204.12 630.633 204.12.02 0-.012 0 0 0 228.032 0 447.902-71.78 630.632-204.12V467.23c-182.72-132.332-402.61-204.109-630.624-204.109h-.008z"/></clipPath><clipPath clipPathUnits="userSpaceOnUse" id="bf"><path d="M915.168 263.121c-228.031 0-447.895 71.77-630.633 204.109v1585.88c182.719 132.33 402.621 204.12 630.633 204.12.02 0-.012 0 0 0 228.032 0 447.902-71.78 630.632-204.12V467.23c-182.72-132.332-402.61-204.109-630.624-204.109h-.008z"/></clipPath><clipPath clipPathUnits="userSpaceOnUse" id="bg"><path d="M915.168 263.121c-228.031 0-447.895 71.77-630.633 204.109v1585.88c182.719 132.33 402.621 204.12 630.633 204.12.02 0-.012 0 0 0 228.032 0 447.902-71.78 630.632-204.12V467.23c-182.72-132.332-402.61-204.109-630.624-204.109h-.008z"/></clipPath><clipPath clipPathUnits="userSpaceOnUse" id="bh"><path d="M915.168 263.121c-228.031 0-447.895 71.77-630.633 204.109v1585.88c182.719 132.33 402.621 204.12 630.633 204.12.02 0-.012 0 0 0 228.032 0 447.902-71.78 630.632-204.12V467.23c-182.72-132.332-402.61-204.109-630.624-204.109h-.008z"/></clipPath><clipPath clipPathUnits="userSpaceOnUse" id="bi"><path d="M915.168 263.121c-228.031 0-447.895 71.77-630.633 204.109v1585.88c182.719 132.33 402.621 204.12 630.633 204.12.02 0-.012 0 0 0 228.032 0 447.902-71.78 630.632-204.12V467.23c-182.72-132.332-402.61-204.109-630.624-204.109h-.008z"/></clipPath><clipPath clipPathUnits="userSpaceOnUse" id="bj"><path d="M915.168 263.121c-228.031 0-447.895 71.77-630.633 204.109v1585.88c182.719 132.33 402.621 204.12 630.633 204.12.02 0-.012 0 0 0 228.032 0 447.902-71.78 630.632-204.12V467.23c-182.72-132.332-402.61-204.109-630.624-204.109h-.008z"/></clipPath><clipPath clipPathUnits="userSpaceOnUse" id="bk"><path d="M915.168 263.121c-228.031 0-447.895 71.77-630.633 204.109v1585.88c182.719 132.33 402.621 204.12 630.633 204.12.02 0-.012 0 0 0 228.032 0 447.902-71.78 630.632-204.12V467.23c-182.72-132.332-402.61-204.109-630.624-204.109h-.008z"/></clipPath><clipPath clipPathUnits="userSpaceOnUse" id="bl"><path d="M915.168 263.121c-228.031 0-447.895 71.77-630.633 204.109v1585.88c182.719 132.33 402.621 204.12 630.633 204.12.02 0-.012 0 0 0 228.032 0 447.902-71.78 630.632-204.12V467.23c-182.72-132.332-402.61-204.109-630.624-204.109h-.008z"/></clipPath><clipPath clipPathUnits="userSpaceOnUse" id="bm"><path d="M915.168 263.121c-228.031 0-447.895 71.77-630.633 204.109v1585.88c182.719 132.33 402.621 204.12 630.633 204.12.02 0-.012 0 0 0 228.032 0 447.902-71.78 630.632-204.12V467.23c-182.72-132.332-402.61-204.109-630.624-204.109h-.008z"/></clipPath><clipPath clipPathUnits="userSpaceOnUse" id="bn"><path d="M915.168 263.121c-228.031 0-447.895 71.77-630.633 204.109v1585.88c182.719 132.33 402.621 204.12 630.633 204.12.02 0-.012 0 0 0 228.032 0 447.902-71.78 630.632-204.12V467.23c-182.72-132.332-402.61-204.109-630.624-204.109h-.008z"/></clipPath><clipPath clipPathUnits="userSpaceOnUse" id="bo"><path d="M915.168 263.121c-228.031 0-447.895 71.77-630.633 204.109v1585.88c182.719 132.33 402.621 204.12 630.633 204.12.02 0-.012 0 0 0 228.032 0 447.902-71.78 630.632-204.12V467.23c-182.72-132.332-402.61-204.109-630.624-204.109h-.008z"/></clipPath><clipPath clipPathUnits="userSpaceOnUse" id="bp"><path d="M915.168 263.121c-228.031 0-447.895 71.77-630.633 204.109v1585.88c182.719 132.33 402.621 204.12 630.633 204.12.02 0-.012 0 0 0 228.032 0 447.902-71.78 630.632-204.12V467.23c-182.72-132.332-402.61-204.109-630.624-204.109h-.008z"/></clipPath><clipPath clipPathUnits="userSpaceOnUse" id="bq"><path d="M915.168 263.121c-228.031 0-447.895 71.77-630.633 204.109v1585.88c182.719 132.33 402.621 204.12 630.633 204.12.02 0-.012 0 0 0 228.032 0 447.902-71.78 630.632-204.12V467.23c-182.72-132.332-402.61-204.109-630.624-204.109h-.008z"/></clipPath><clipPath clipPathUnits="userSpaceOnUse" id="br"><path d="M915.168 263.121c-228.031 0-447.895 71.77-630.633 204.109v1585.88c182.719 132.33 402.621 204.12 630.633 204.12.02 0-.012 0 0 0 228.032 0 447.902-71.78 630.632-204.12V467.23c-182.72-132.332-402.61-204.109-630.624-204.109h-.008z"/></clipPath><clipPath clipPathUnits="userSpaceOnUse" id="bs"><path d="M915.168 263.121c-228.031 0-447.895 71.77-630.633 204.109v1585.88c182.719 132.33 402.621 204.12 630.633 204.12.02 0-.012 0 0 0 228.032 0 447.902-71.78 630.632-204.12V467.23c-182.72-132.332-402.61-204.109-630.624-204.109h-.008z"/></clipPath></defs><path d="M0 48.479v238.996c69.282 63.092 171.252 66.289 244.044.001l.001-57.07V48.48C173.067-16.157 70.976-16.161.001 48.479" fill="#c9d0dc"/><path d="M237.035 51.576c-65.186-59.361-164.84-59.361-230.025 0v232.801c65.185 59.363 164.84 59.363 230.025.002V51.576" fill="#010a10"/><path d="M26.708 275.356c55.467 45.108 135.161 45.104 190.63 0l-.002-214.757C161.871 15.49 82.174 15.493 26.706 60.6zm-7.853 3.69L18.854 56.91C80.41 5.6 165.079 6.804 225.189 56.909l.003 222.136c-60.779 50.74-145.559 50.74-206.337 0" fill="#107fcb"/><path d="M186.675 106.024c0 33.94-27.954 61.455-62.436 61.455s-62.436-27.515-62.436-61.455 27.954-61.455 62.436-61.455 62.436 27.515 62.436 61.455" fill="#fff"/><path d="M140.125 123.58h6.592l-.333-9.348zm25.042-.127h6.558l-.317-9.313zm7.097 11.244h7.213C169.01 154.195 148.2 167.48 124.24 167.48c-34.482 0-62.436-27.515-62.436-61.455s27.954-61.455 62.436-61.455c34.484 0 62.436 27.515 62.436 61.455 0 9.085-2.003 17.71-5.598 25.47l-1.805-25.9h-16.201l-1.912 6.649h2.517l-7.993 12.484-1.127-19.134h-16.427l-1.872 6.619 2.507.03-10.725 16.027-8.838-.038c-.925 0-4.5-.844-4.5-5.192 0-4.359 4.215-10.676 8.492-10.676l1.8.042-.938 3.298h7.867l2.825-10.11h-12.125c-7.536 0-13.625 5.3-15.55 10.767l3.15-10.767H99.43l-1.896 6.65 2.787-.007-2.807 9.733-7.077-16.376h-10.07l-1.895 6.65h2.767l-6.261 22.454h8.064s3.118-11.134 3.92-13.992c1.14 2.704 5.886 13.992 5.886 13.992h8.979l4.119-14.269a19.187 19.187 0 00-.013 6.545c.788 4.672 5.412 7.724 10.448 7.724h16.301l2.817-4.185h11.504l.233 4.185h10.164l2.63-4.185h11.766l.467 4.185M190.664 139.67c0 2.15-1.777 3.9-3.963 3.9s-3.962-1.75-3.962-3.9c0-2.189 1.738-3.903 3.962-3.903 2.222 0 3.963 1.714 3.963 3.902m-3.963-4.946c-2.772 0-5.026 2.218-5.026 4.946 0 2.728 2.254 4.947 5.026 4.947s5.026-2.219 5.026-4.947c0-2.773-2.207-4.946-5.026-4.946" fill="#45a5e1"/><path d="M187.985 138.6c0 .483-.461.808-.892.808h-1.305v-1.661h1.305c.43 0 .892.325.892.853m1.131 0c0-1.119-1.05-1.81-2.023-1.81h-2.416v5.78h1.111v-2.182h.708l1.455 2.183h1.345l-1.525-2.242c.478-.12 1.345-.597 1.345-1.729" fill="#45a5e1"/><path d="M1040.85 865.949c6.06-7.308 11.79-15.258 17.38-23.699-5.59 8.43-11.32 16.398-17.38 23.699" transform="matrix(.13333 0 0 -.13333 0 336)" clip-path="url(#a)" fill="#fff"/><path d="M1058.68 841.582" transform="matrix(.13333 0 0 -.13333 0 336)" clip-path="url(#b)" fill="#fff"/><path d="M1076.94 812.18c.61-1.008 1.23-2.039 1.84-3.051-.62 1.019-1.23 2.043-1.84 3.051" transform="matrix(.13333 0 0 -.13333 0 336)" clip-path="url(#c)" fill="#fff"/><path d="M1067.54 827.648c2.65-4.277 5.29-8.636 7.96-13.07-2.66 4.434-5.31 8.793-7.96 13.07" transform="matrix(.13333 0 0 -.13333 0 336)" clip-path="url(#d)" fill="#fff"/><path d="M1082.92 802.238c.7-1.156 1.39-2.308 2.1-3.476-.71 1.16-1.41 2.32-2.1 3.476" transform="matrix(.13333 0 0 -.13333 0 336)" clip-path="url(#e)" fill="#fff"/><path d="M1009.39 894.449" transform="matrix(.13333 0 0 -.13333 0 336)" clip-path="url(#f)" fill="#fff"/><path d="M996.758 901.211" transform="matrix(.13333 0 0 -.13333 0 336)" clip-path="url(#g)" fill="#fff"/><path d="M1031.3 876.551" transform="matrix(.13333 0 0 -.13333 0 336)" clip-path="url(#h)" fill="#fff"/><path d="M1020.86 886.148" transform="matrix(.13333 0 0 -.13333 0 336)" clip-path="url(#i)" fill="#fff"/><path d="M1210.68 655.879c-.52-.539-1.07-1.07-1.59-1.609.52.539 1.07 1.07 1.59 1.609" transform="matrix(.13333 0 0 -.13333 0 336)" clip-path="url(#j)" fill="#fff"/><path d="M1234.8 684.68c-.34-.481-.64-.961-.99-1.43.35.469.65.949.99 1.43" transform="matrix(.13333 0 0 -.13333 0 336)" clip-path="url(#k)" fill="#fff"/><path d="M1244.12 699.059c-.45-.778-.95-1.547-1.41-2.321.46.774.96 1.543 1.41 2.321" transform="matrix(.13333 0 0 -.13333 0 336)" clip-path="url(#l)" fill="#fff"/><path d="M1223.97 670.691c-.75-.89-1.5-1.781-2.25-2.66.75.879 1.5 1.77 2.25 2.66" transform="matrix(.13333 0 0 -.13333 0 336)" clip-path="url(#m)" fill="#fff"/><path d="M1092.87 785.93c.44-.719.9-1.442 1.35-2.16-.45.718-.91 1.441-1.35 2.16" transform="matrix(.13333 0 0 -.13333 0 336)" clip-path="url(#n)" fill="#fff"/><path d="M982.766 906.211c4.297-1.18 8.386-2.641 12.324-4.301-3.938 1.66-8.027 3.121-12.324 4.301" transform="matrix(.13333 0 0 -.13333 0 336)" clip-path="url(#o)" fill="#fff"/><path d="M1113.08 755.441c.26-.363.53-.722.79-1.082-.26.36-.53.719-.79 1.082" transform="matrix(.13333 0 0 -.13333 0 336)" clip-path="url(#p)" fill="#fff"/><path d="M1102.65 770.621c.38-.57.76-1.141 1.15-1.723l-1.15 1.723" transform="matrix(.13333 0 0 -.13333 0 336)" clip-path="url(#q)" fill="#fff"/><path d="M1252.09 714.762c-.39-.903-.77-1.793-1.18-2.684.41.891.79 1.781 1.18 2.684" transform="matrix(.13333 0 0 -.13333 0 336)" clip-path="url(#r)" fill="#fff"/><path d="M1257.35 728.52" transform="matrix(.13333 0 0 -.13333 0 336)" clip-path="url(#s)" fill="#fff"/><path d="M788.758 1170.79" transform="matrix(.13333 0 0 -.13333 0 336)" clip-path="url(#t)" fill="#fff"/><path d="M759.125 1142.95" transform="matrix(.13333 0 0 -.13333 0 336)" clip-path="url(#u)" fill="#fff"/><path d="M734.113 1095.91c.196.63.45 1.24.653 1.88-.203-.64-.457-1.25-.653-1.88" transform="matrix(.13333 0 0 -.13333 0 336)" clip-path="url(#v)" fill="#fff"/><path d="M738.391 1107.69c.535 1.32 1.113 2.62 1.691 3.91-.578-1.3-1.156-2.59-1.691-3.91" transform="matrix(.13333 0 0 -.13333 0 336)" clip-path="url(#w)" fill="#fff"/><path d="M751.848 1133.11c.648.97 1.367 1.88 2.039 2.84-.672-.96-1.387-1.87-2.039-2.84" transform="matrix(.13333 0 0 -.13333 0 336)" clip-path="url(#x)" fill="#fff"/><path d="M743.844 1119.42c.621 1.19 1.211 2.4 1.863 3.58-.652-1.18-1.242-2.39-1.863-3.58" transform="matrix(.13333 0 0 -.13333 0 336)" clip-path="url(#y)" fill="#fff"/><path d="M730.285 1080.03c.238 1.27.449 2.54.719 3.79-.27-1.25-.481-2.52-.719-3.79" transform="matrix(.13333 0 0 -.13333 0 336)" clip-path="url(#z)" fill="#fff"/><path d="M790.078 935.48c-.043.032-.078.059-.125.09.047-.031.082-.058.125-.09" transform="matrix(.13333 0 0 -.13333 0 336)" clip-path="url(#A)" fill="#fff"/><path d="M728.414 1066.72c.121 1.34.297 2.67.453 4-.156-1.33-.332-2.66-.453-4" transform="matrix(.13333 0 0 -.13333 0 336)" clip-path="url(#B)" fill="#fff"/><path d="M798.34 930.219c-.481.293-.938.609-1.418.902.48-.293.937-.609 1.418-.902" transform="matrix(.13333 0 0 -.13333 0 336)" clip-path="url(#C)" fill="#fff"/><path d="M967.238 909.262" transform="matrix(.13333 0 0 -.13333 0 336)" clip-path="url(#D)" fill="#fff"/><path d="M755.25 969.281c-.41.559-.77 1.16-1.172 1.719.402-.559.762-1.16 1.172-1.719" transform="matrix(.13333 0 0 -.13333 0 336)" clip-path="url(#E)" fill="#fff"/><path d="M947.734 910.051c.778.027 1.579.09 2.34.097-.761-.007-1.57-.078-2.34-.097" transform="matrix(.13333 0 0 -.13333 0 336)" clip-path="url(#F)" fill="#fff"/><path d="M934.156 909.02c2.231.261 4.457.531 6.61.691-2.149-.16-4.383-.43-6.61-.691" transform="matrix(.13333 0 0 -.13333 0 336)" clip-path="url(#G)" fill="#fff"/><path d="M950.109 910.148" transform="matrix(.13333 0 0 -.13333 0 336)" clip-path="url(#H)" fill="#fff"/><path d="M803.965 927.16c1.004-.531 1.976-1.121 2.996-1.629.105-.062.211-.109.312-.172-.093.051-.179.102-.277.153-1.031.519-2.016 1.109-3.031 1.648" transform="matrix(.13333 0 0 -.13333 0 336)" clip-path="url(#I)" fill="#fff"/><path d="M767.508 1152.49c1.043 1.09 2.055 2.21 3.133 3.27-1.078-1.06-2.09-2.18-3.133-3.27" transform="matrix(.13333 0 0 -.13333 0 336)" clip-path="url(#J)" fill="#fff"/><path d="M779.047 1163.4c1.18.98 2.422 1.9 3.629 2.85-1.207-.96-2.449-1.86-3.629-2.85" transform="matrix(.13333 0 0 -.13333 0 336)" clip-path="url(#K)" fill="#fff"/><path d="M727.773 1053.97c0-.11-.019-.22-.019-.34 0-28.04 8.07-54.2 22.008-76.278-13.938 22.078-22.004 48.238-22.004 76.278 0 .12.015.23.015.34" transform="matrix(.13333 0 0 -.13333 0 336)" clip-path="url(#L)" fill="#fff"/><path d="M1197.75 643.23c-.72-.679-1.43-1.371-2.16-2.039.73.668 1.44 1.36 2.16 2.039" transform="matrix(.13333 0 0 -.13333 0 336)" clip-path="url(#M)" fill="#fff"/><path d="M799.57 1177.66c1.391.8 2.746 1.65 4.164 2.4-1.418-.75-2.773-1.6-4.164-2.4" transform="matrix(.13333 0 0 -.13333 0 336)" clip-path="url(#N)" fill="#fff"/><path d="M1150.48 604.789c-1.01-.719-2.01-1.461-3.03-2.18 1.02.719 2.02 1.461 3.03 2.18" transform="matrix(.13333 0 0 -.13333 0 336)" clip-path="url(#O)" fill="#fff"/><path d="M1097.53 569.789c-1.11-.668-2.21-1.348-3.32-2.019 1.11.671 2.21 1.339 3.32 2.019" transform="matrix(.13333 0 0 -.13333 0 336)" clip-path="url(#P)" fill="#fff"/><path d="M1061.35 548.5c-.69-.391-1.38-.789-2.06-1.168.68.387 1.37.777 2.06 1.168" transform="matrix(.13333 0 0 -.13333 0 336)" clip-path="url(#Q)" fill="#fff"/><path d="M1132.5 592.219c-.98-.66-1.97-1.309-2.95-1.969.98.66 1.97 1.309 2.95 1.969" transform="matrix(.13333 0 0 -.13333 0 336)" clip-path="url(#R)" fill="#fff"/><path d="M1165.55 616" transform="matrix(.13333 0 0 -.13333 0 336)" clip-path="url(#S)" fill="#fff"/><path d="M1114.78 580.57c-.44-.281-.88-.57-1.32-.851.44.281.88.57 1.32.851" transform="matrix(.13333 0 0 -.13333 0 336)" clip-path="url(#T)" fill="#fff"/><path d="M1043.58 538.539c-.99-.551-1.98-1.09-2.96-1.629l2.96 1.629" transform="matrix(.13333 0 0 -.13333 0 336)" clip-path="url(#U)" fill="#fff"/><path d="M1078.47 558.371c-.7-.41-1.4-.812-2.1-1.223.7.411 1.4.813 2.1 1.223" transform="matrix(.13333 0 0 -.13333 0 336)" clip-path="url(#V)" fill="#fff"/><path d="M1182.56 629.75" transform="matrix(.13333 0 0 -.13333 0 336)" clip-path="url(#W)" fill="#fff"/><path d="M995.293 982.578c11.997 20.942 18.887 45.192 18.887 71.052 0 79.1-64.114 143.22-143.207 143.22-20.555 0-40.051-4.41-57.719-12.2-18.074-23.97-28.805-53.79-28.805-86.12 0-79.1 64.121-143.221 143.219-143.221 9.613 0 18.996.992 28.074 2.812 67.448-1.859 148.068-102.609 216.728-191.609-13.84-6.223-24.74-12.551-42.78-22.961a.11.11 0 01.03-.039h-.01c-.51-.301-1.03-.614-1.54-.903-1.95-1.121-3.92-2.257-5.9-3.41-.93-.539-1.87-1.09-2.81-1.64-1.73-1-3.46-2.02-5.22-3.039-.8-.461-1.6-.93-2.4-1.399-9.15-5.351-18.64-10.93-28.39-16.621l-.76-.449c-2.19-1.281-4.4-2.571-6.62-3.86-17.85 34.559-68.79 125.25-145.05 196.489-.372-.051-.719-.071-1.098-.121-12.02-1.68-21.824-1.61-29.719-.7.305-.027.586-.078.895-.097 70.351-76.891 114.632-173.172 133.342-219.403-18.04-10.089-36.424-19.968-54.702-29.05l-.015-.008c-24.887-14.36-74.27-31.582-74.27-31.582-44.305-14.731-77.262-32.379-102.246-49.989-8.871-6.25-16.57-12.652-23.387-19.171l-.004-.008c6.817 6.519 14.52 12.918 23.395 19.179-107.512-85.171-.156-233.25 103.484-164.359 0 0-29.05-41.039-45.289-103.461l-32.863-25.41c-.289 1.922 15.359-1.91 15.055 0l-6.02 12.039c.301-1.91 5.731-10.117 6.02-12.039l-10.539-25.602c7.238-13.546-57.188-33.117-57.188-33.117h247.339c.16 15.399 2.99-13.422 7.82 0 .06 86.02 13.67 203.867-5.8 302.699-20.55-11.148-39.738-21.281-56.164-30.3 20.965 90.859 209.054 114.699 288.274 230.332.01.008.02.019.02.019-86.68 128.149-193.83 221.141-262.067 254.047" transform="matrix(.13333 0 0 -.13333 0 336)" clip-path="url(#X)" fill="#fff"/><path d="M799.57 1177.66c-2.168-1.25-4.312-2.53-6.406-3.89-1.488-.97-2.953-1.96-4.406-2.98-2.074-1.46-4.09-2.98-6.082-4.54-1.207-.95-2.449-1.87-3.629-2.85a146.036 146.036 0 01-8.406-7.64c-1.078-1.06-2.09-2.18-3.133-3.27a145.743 145.743 0 01-8.383-9.54c-1.82-2.28-3.559-4.62-5.238-7-.672-.96-1.391-1.87-2.039-2.84a146.262 146.262 0 01-6.141-10.11c-.652-1.18-1.242-2.39-1.863-3.58-1.328-2.56-2.59-5.17-3.762-7.82-.578-1.29-1.156-2.59-1.691-3.91a142.86 142.86 0 01-3.625-9.9c-.203-.64-.457-1.25-.653-1.88-1.218-3.96-2.226-8-3.109-12.09-.27-1.25-.481-2.52-.719-3.79-.57-3.07-1.043-6.17-1.418-9.31-.156-1.33-.332-2.66-.453-4-.383-4.21-.633-8.45-.641-12.75 0-.11-.015-.22-.015-.34 0-28.04 8.066-54.2 22.004-76.278 1.367-2.161 2.836-4.262 4.316-6.352.402-.559.762-1.16 1.172-1.719a144.057 144.057 0 0134.703-33.711c.047-.031.082-.058.125-.09 2.231-1.531 4.527-2.949 6.844-4.359.48-.293.937-.609 1.418-.902 1.836-1.078 3.738-2.059 5.625-3.059 1.015-.539 2-1.129 3.031-1.648.098-.051.184-.102.277-.153.469-.257.938-.507 1.43-.769 77.199-40.949 124.32-113.789 171.039-265.281h-.004c18.278 9.082 36.662 18.961 54.702 29.05-18.71 46.231-62.991 142.512-133.342 219.403-.309.019-.59.07-.895.097 7.895-.91 17.699-.98 29.719.7.379.05.726.07 1.098.121.988.129 1.929.199 2.906.32.078.012.152.012.23.02 2.227.261 4.461.531 6.61.691.007 0 .019.008.027.008 2.32.172 4.562.25 6.797.32.051 0 .098.012.144.012.77.019 1.579.09 2.34.097h.035c5.668.082 11.032-.218 16.18-.808.309-.031.641-.039.949-.078a108.514 108.514 0 0014.012-2.68c.5-.133 1.02-.23 1.516-.371 4.297-1.18 8.386-2.641 12.324-4.301.555-.238 1.117-.461 1.668-.699a101.549 101.549 0 0012.632-6.762 106.47 106.47 0 0010.07-7.16c.47-.367.94-.758 1.4-1.141a130.48 130.48 0 009.37-8.488c.36-.359.71-.738 1.07-1.109a166.03 166.03 0 008.96-9.86c.2-.242.39-.492.59-.742 6.06-7.301 11.79-15.269 17.38-23.699.14-.23.3-.449.45-.668 2.7-4.113 5.38-8.332 8.05-12.633.27-.429.54-.859.81-1.301 2.65-4.277 5.3-8.636 7.96-13.07.48-.789.96-1.598 1.44-2.398.61-1.008 1.22-2.032 1.84-3.051 1.37-2.289 2.74-4.578 4.14-6.891.69-1.156 1.39-2.316 2.1-3.476 2.56-4.25 5.18-8.532 7.85-12.832.44-.719.9-1.442 1.35-2.16 2.74-4.379 5.54-8.77 8.43-13.149l1.15-1.723c3-4.5 6.08-9 9.28-13.457.26-.363.53-.722.79-1.082 3.38-4.668 6.86-9.3 10.53-13.871 1.55.903 2.98 1.723 4.42 2.551 18.58 10.731 29.58 17.152 43.65 23.473-68.66 89-149.28 189.75-216.728 191.609-9.078-1.82-18.461-2.812-28.074-2.812-79.098 0-143.219 64.121-143.219 143.221 0 32.33 10.731 62.15 28.805 86.12-3.231-1.43-6.418-2.94-9.52-4.59-1.418-.75-2.773-1.6-4.164-2.4" transform="matrix(.13333 0 0 -.13333 0 336)" clip-path="url(#Y)" fill="#c9d0dc"/><path d="M1058.23 842.25c.14-.23.3-.449.45-.668-.15.219-.31.438-.45.668" transform="matrix(.13333 0 0 -.13333 0 336)" clip-path="url(#Z)" fill="#c9d0dc"/><path d="M1103.8 768.898c3-4.507 6.08-9 9.28-13.457-3.2 4.457-6.28 8.957-9.28 13.457" transform="matrix(.13333 0 0 -.13333 0 336)" clip-path="url(#aa)" fill="#c9d0dc"/><path d="M1094.22 783.77" transform="matrix(.13333 0 0 -.13333 0 336)" clip-path="url(#ab)" fill="#c9d0dc"/><path d="M1078.78 809.129c1.37-2.277 2.75-4.578 4.14-6.891-1.4 2.313-2.77 4.602-4.14 6.891" transform="matrix(.13333 0 0 -.13333 0 336)" clip-path="url(#ac)" fill="#c9d0dc"/><path d="M1040.26 866.691c.2-.242.39-.492.59-.742-.2.25-.39.5-.59.742" transform="matrix(.13333 0 0 -.13333 0 336)" clip-path="url(#ad)" fill="#c9d0dc"/><path d="M1066.73 828.949" transform="matrix(.13333 0 0 -.13333 0 336)" clip-path="url(#ae)" fill="#c9d0dc"/><path d="M1085.02 798.762" transform="matrix(.13333 0 0 -.13333 0 336)" clip-path="url(#af)" fill="#c9d0dc"/><path d="M1075.5 814.578c.48-.797.96-1.59 1.44-2.398-.48.8-.96 1.609-1.44 2.398" transform="matrix(.13333 0 0 -.13333 0 336)" clip-path="url(#ag)" fill="#c9d0dc"/><path d="M947.59 910.039c-2.235-.07-4.477-.148-6.797-.32-.008 0-.02-.008-.027-.008 2.379.18 4.679.269 6.968.34-.046 0-.093-.012-.144-.012" transform="matrix(.13333 0 0 -.13333 0 336)" clip-path="url(#ah)" fill="#c9d0dc"/><path d="M995.09 901.91c.555-.238 1.117-.461 1.668-.699-.551.238-1.113.461-1.668.699" transform="matrix(.13333 0 0 -.13333 0 336)" clip-path="url(#ai)" fill="#c9d0dc"/><path d="M1007.8 895.43" transform="matrix(.13333 0 0 -.13333 0 336)" clip-path="url(#aj)" fill="#c9d0dc"/><path d="M950.086 910.148h-.012.035-.023" transform="matrix(.13333 0 0 -.13333 0 336)" clip-path="url(#ak)" fill="#c9d0dc"/><path d="M1030.23 877.66c.36-.359.71-.738 1.07-1.109-.36.371-.71.75-1.07 1.109" transform="matrix(.13333 0 0 -.13333 0 336)" clip-path="url(#al)" fill="#c9d0dc"/><path d="M981.25 906.582c.5-.133 1.023-.23 1.516-.371-.496.141-1.016.238-1.516.371" transform="matrix(.13333 0 0 -.13333 0 336)" clip-path="url(#am)" fill="#c9d0dc"/><path d="M1019.46 887.289" transform="matrix(.13333 0 0 -.13333 0 336)" clip-path="url(#an)" fill="#c9d0dc"/><path d="M1113.87 754.359c3.38-4.668 6.86-9.3 10.53-13.871 1.55.903 2.96 1.711 4.42 2.551-1.44-.828-2.87-1.648-4.42-2.551-3.67 4.571-7.15 9.203-10.53 13.871" transform="matrix(.13333 0 0 -.13333 0 336)" clip-path="url(#ao)" fill="#c9d0dc"/><path d="M933.926 909c-.977-.121-1.918-.191-2.906-.32 1.07.14 2.089.218 3.136.34-.078-.008-.152-.008-.23-.02" transform="matrix(.13333 0 0 -.13333 0 336)" clip-path="url(#ap)" fill="#c9d0dc"/><path d="M966.289 909.34c.309-.031.641-.039.949-.078-.308.039-.64.047-.949.078" transform="matrix(.13333 0 0 -.13333 0 336)" clip-path="url(#aq)" fill="#c9d0dc"/><path d="M808.703 924.59c77.203-40.961 124.32-113.789 171.035-265.281h.004c-46.719 151.492-93.84 224.332-171.039 265.281" transform="matrix(.13333 0 0 -.13333 0 336)" clip-path="url(#ar)" fill="#0a2345"/><path d="M762.211 1146.66" transform="matrix(.13333 0 0 -.13333 0 336)" clip-path="url(#as)" fill="#0a2345"/><path d="M728.867 1070.72" transform="matrix(.13333 0 0 -.13333 0 336)" clip-path="url(#at)" fill="#0a2345"/><path d="M796.922 931.121c-2.317 1.41-4.613 2.828-6.844 4.359 2.231-1.531 4.527-2.949 6.844-4.359" transform="matrix(.13333 0 0 -.13333 0 336)" clip-path="url(#au)" fill="#0a2345"/><path d="M727.773 1053.97c.008 4.3.258 8.54.641 12.75-.383-4.21-.633-8.45-.641-12.75" transform="matrix(.13333 0 0 -.13333 0 336)" clip-path="url(#av)" fill="#0a2345"/><path d="M734.766 1097.79" transform="matrix(.13333 0 0 -.13333 0 336)" clip-path="url(#aw)" fill="#0a2345"/><path d="M753.887 1135.95" transform="matrix(.13333 0 0 -.13333 0 336)" clip-path="url(#ax)" fill="#0a2345"/><path d="M731.004 1083.82c.883 4.09 1.891 8.13 3.109 12.09-1.222-3.96-2.226-8-3.109-12.09" transform="matrix(.13333 0 0 -.13333 0 336)" clip-path="url(#ay)" fill="#0a2345"/><path d="M745.707 1123c1.918 3.45 3.953 6.83 6.141 10.11-2.192-3.28-4.223-6.66-6.141-10.11" transform="matrix(.13333 0 0 -.13333 0 336)" clip-path="url(#az)" fill="#0a2345"/><path d="M793.164 1173.77c2.094 1.36 4.238 2.64 6.406 3.89-2.168-1.25-4.312-2.53-6.406-3.89" transform="matrix(.13333 0 0 -.13333 0 336)" clip-path="url(#aA)" fill="#0a2345"/><path d="M755.25 969.281" transform="matrix(.13333 0 0 -.13333 0 336)" clip-path="url(#aB)" fill="#0a2345"/><path d="M754.078 971c-1.48 2.09-2.949 4.191-4.316 6.352 1.367-2.172 2.84-4.262 4.316-6.352" transform="matrix(.13333 0 0 -.13333 0 336)" clip-path="url(#aC)" fill="#0a2345"/><path d="M770.641 1155.76" transform="matrix(.13333 0 0 -.13333 0 336)" clip-path="url(#aD)" fill="#0a2345"/><path d="M782.676 1166.25c1.992 1.56 4.008 3.08 6.082 4.54-2.074-1.45-4.09-2.98-6.082-4.54" transform="matrix(.13333 0 0 -.13333 0 336)" clip-path="url(#aE)" fill="#0a2345"/><path d="M740.082 1111.6c1.172 2.65 2.434 5.26 3.762 7.82a146.265 146.265 0 01-3.762-7.82" transform="matrix(.13333 0 0 -.13333 0 336)" clip-path="url(#aF)" fill="#0a2345"/><path d="M803.965 927.16c-1.887 1-3.789 1.981-5.625 3.059 1.836-1.078 3.738-2.059 5.625-3.059" transform="matrix(.13333 0 0 -.13333 0 336)" clip-path="url(#aG)" fill="#0a2345"/><path d="M803.734 1180.06c3.102 1.65 6.289 3.16 9.52 4.59.019.02.035.05.055.08-3.258-1.44-6.446-3-9.575-4.67" transform="matrix(.13333 0 0 -.13333 0 336)" clip-path="url(#aH)" fill="#0a2345"/><path d="M1040.62 536.91c.98.539 1.97 1.078 2.96 1.629 5.18 2.871 10.42 5.801 15.71 8.793.68.379 1.37.777 2.06 1.168 4.98 2.828 9.99 5.719 15.02 8.648.7.411 1.4.813 2.1 1.223 5.24 3.07 10.5 6.219 15.74 9.399 1.11.671 2.21 1.351 3.32 2.019 5.33 3.262 10.64 6.563 15.93 9.93.44.281.88.57 1.32.851 4.96 3.18 9.89 6.41 14.77 9.68.98.66 1.97 1.309 2.95 1.969 5.04 3.41 10.03 6.883 14.95 10.39 1.02.719 2.02 1.461 3.03 2.18 4.92 3.563 9.78 7.152 14.53 10.813.18.128.36.257.54.398 4.82 3.719 9.5 7.512 14.1 11.332.97.797 1.95 1.609 2.91 2.418 4.46 3.77 8.82 7.582 13.03 11.441.73.668 1.44 1.36 2.16 2.039 3.91 3.641 7.7 7.321 11.34 11.04.52.539 1.07 1.07 1.59 1.609 3.86 4 7.52 8.051 11.04 12.152.75.879 1.5 1.77 2.25 2.66 3.46 4.141 6.78 8.321 9.84 12.559.35.469.65.949.99 1.43 2.83 3.98 5.46 8 7.91 12.058.46.774.96 1.543 1.41 2.321 2.5 4.293 4.76 8.64 6.79 13.019.41.891.79 1.781 1.18 2.684 2 4.547 3.82 9.117 5.26 13.758 0 0 0-.008-.01-.008-79.22-115.633-267.309-139.473-288.274-230.332 16.426 9.019 35.614 19.152 56.164 30.3a2348.1 2348.1 0 0115.39 8.43" transform="matrix(.13333 0 0 -.13333 0 336)" clip-path="url(#aI)" fill="#c9d0dc"/><path d="M1250.91 712.078" transform="matrix(.13333 0 0 -.13333 0 336)" clip-path="url(#aJ)" fill="#c9d0dc"/><path d="M1257.36 728.531s-.01 0-.01-.011c-1.44-4.641-3.26-9.211-5.26-13.758 2 4.547 3.82 9.129 5.27 13.769" transform="matrix(.13333 0 0 -.13333 0 336)" clip-path="url(#aK)" fill="#c9d0dc"/><path d="M1147.45 602.609a718.192 718.192 0 010 0" transform="matrix(.13333 0 0 -.13333 0 336)" clip-path="url(#aL)" fill="#c9d0dc"/><path d="M1179.65 627.332c-4.6-3.82-9.28-7.613-14.1-11.332 4.82 3.719 9.5 7.512 14.1 11.332" transform="matrix(.13333 0 0 -.13333 0 336)" clip-path="url(#aM)" fill="#c9d0dc"/><path d="M1233.81 683.25c-3.06-4.238-6.38-8.418-9.84-12.559 3.46 4.141 6.78 8.321 9.84 12.559" transform="matrix(.13333 0 0 -.13333 0 336)" clip-path="url(#aN)" fill="#c9d0dc"/><path d="M1025.23 528.48" transform="matrix(.13333 0 0 -.13333 0 336)" clip-path="url(#aO)" fill="#c9d0dc"/><path d="M1221.72 668.031" transform="matrix(.13333 0 0 -.13333 0 336)" clip-path="url(#aP)" fill="#c9d0dc"/><path d="M1242.71 696.738" transform="matrix(.13333 0 0 -.13333 0 336)" clip-path="url(#aQ)" fill="#c9d0dc"/><path d="M1165.01 615.602c-4.75-3.661-9.61-7.25-14.53-10.813 4.92 3.563 9.78 7.152 14.53 10.813" transform="matrix(.13333 0 0 -.13333 0 336)" clip-path="url(#aR)" fill="#c9d0dc"/><path d="M1195.59 641.191" transform="matrix(.13333 0 0 -.13333 0 336)" clip-path="url(#aS)" fill="#c9d0dc"/><path d="M1076.37 557.148" transform="matrix(.13333 0 0 -.13333 0 336)" clip-path="url(#aT)" fill="#c9d0dc"/><path d="M1257.35 728.52s0-.008-.01-.008c.01 0 .01.008.01.008" transform="matrix(.13333 0 0 -.13333 0 336)" clip-path="url(#aU)" fill="#c9d0dc"/><path d="M1059.29 547.332" transform="matrix(.13333 0 0 -.13333 0 336)" clip-path="url(#aV)" fill="#c9d0dc"/><path d="M1209.09 654.27" transform="matrix(.13333 0 0 -.13333 0 336)" clip-path="url(#aW)" fill="#c9d0dc"/><path d="M1113.46 579.719" transform="matrix(.13333 0 0 -.13333 0 336)" clip-path="url(#aX)" fill="#c9d0dc"/><path d="M1129.55 590.25" transform="matrix(.13333 0 0 -.13333 0 336)" clip-path="url(#aY)" fill="#c9d0dc"/><path d="M1094.21 567.77c-5.24-3.18-10.5-6.329-15.74-9.399 5.24 3.07 10.5 6.207 15.74 9.399" transform="matrix(.13333 0 0 -.13333 0 336)" clip-path="url(#aZ)" fill="#c9d0dc"/><path d="M654.563 755.719c-.375 1.211-.801 2.441-1.133 3.64.336-1.199.758-2.429 1.133-3.64" transform="matrix(.13333 0 0 -.13333 0 336)" clip-path="url(#ba)" fill="#fff"/><path d="M651.266 768.59c-.368 1.898-.633 3.762-.895 5.629.266-1.867.52-3.731.895-5.629" transform="matrix(.13333 0 0 -.13333 0 336)" clip-path="url(#bb)" fill="#fff"/><path d="M844.883 638.09" transform="matrix(.13333 0 0 -.13333 0 336)" clip-path="url(#bc)" fill="#fff"/><path d="M847.824 642.941c-.461-.929-.969-1.742-1.465-2.57.5.828 1 1.641 1.465 2.57" transform="matrix(.13333 0 0 -.13333 0 336)" clip-path="url(#bd)" fill="#fff"/><path d="M853.191 659.789c-1.175-5.969-2.789-11.16-4.777-15.508 2.004 4.328 3.598 9.539 4.777 15.508" transform="matrix(.13333 0 0 -.13333 0 336)" clip-path="url(#be)" fill="#fff"/><path d="M658.605 744.34c-.484 1.199-.929 2.379-1.375 3.558.45-1.179.891-2.359 1.375-3.558" transform="matrix(.13333 0 0 -.13333 0 336)" clip-path="url(#bf)" fill="#fff"/><path d="M841.363 634.211c-.398-.352-.793-.742-1.211-1.051.418.309.809.699 1.211 1.051" transform="matrix(.13333 0 0 -.13333 0 336)" clip-path="url(#bg)" fill="#fff"/><path d="M649.91 777.879c-.777 7.461-.758 14.601.051 21.332 2.148-11.063 6.309-22.723 13.098-34.922 42.836-76.969 145.992-104.148 191.293-97.418a118.13 118.13 0 00-1.09-6.73c5.582 28.769 1.511 74.359-15.063 119.558-25.441 69.43-81.726 105.922-128.808 90-36.297-12.289-64.481-45.199-59.481-91.82" transform="matrix(.13333 0 0 -.13333 0 336)" clip-path="url(#bh)" fill="#fff"/><path d="M650.371 774.219" transform="matrix(.13333 0 0 -.13333 0 336)" clip-path="url(#bi)" fill="#c9d0dc"/><path d="M848.414 644.281c-.203-.441-.379-.922-.59-1.34.207.418.391.899.59 1.34" transform="matrix(.13333 0 0 -.13333 0 336)" clip-path="url(#bj)" fill="#c9d0dc"/><path d="M846.359 640.371c-.48-.793-.964-1.582-1.476-2.281.512.711.996 1.48 1.476 2.281" transform="matrix(.13333 0 0 -.13333 0 336)" clip-path="url(#bk)" fill="#c9d0dc"/><path d="M843.492 636.34a20.97 20.97 0 00-2.129-2.129c.735.641 1.45 1.328 2.129 2.129" transform="matrix(.13333 0 0 -.13333 0 336)" clip-path="url(#bl)" fill="#c9d0dc"/><path d="M853.262 660.141l-.071-.352.071.352" transform="matrix(.13333 0 0 -.13333 0 336)" clip-path="url(#bm)" fill="#c9d0dc"/><path d="M657.23 747.898" transform="matrix(.13333 0 0 -.13333 0 336)" clip-path="url(#bn)" fill="#c9d0dc"/><path d="M653.43 759.359" transform="matrix(.13333 0 0 -.13333 0 336)" clip-path="url(#bo)" fill="#c9d0dc"/><path d="M663.711 732.922c-1.934 3.879-3.578 7.668-5.106 11.418 1.524-3.75 3.172-7.539 5.106-11.418" transform="matrix(.13333 0 0 -.13333 0 336)" clip-path="url(#bp)" fill="#c9d0dc"/><path d="M840.152 633.16c-1.203-.871-2.449-1.621-3.777-2.101 1.328.48 2.578 1.23 3.777 2.101" transform="matrix(.13333 0 0 -.13333 0 336)" clip-path="url(#bq)" fill="#c9d0dc"/><path d="M663.059 764.289c-6.789 12.199-10.95 23.859-13.098 34.922-.809-6.731-.828-13.871-.051-21.332.133-1.207.285-2.43.461-3.66.262-1.867.527-3.731.895-5.629a118.847 118.847 0 012.164-9.231c.332-1.199.758-2.429 1.133-3.64.796-2.578 1.675-5.18 2.667-7.821.446-1.179.891-2.359 1.375-3.558 1.528-3.75 3.172-7.539 5.106-11.418 42.004-84.152 141.176-113.41 172.664-101.863 1.328.48 2.574 1.23 3.777 2.101.418.309.813.699 1.211 1.051a20.97 20.97 0 012.129 2.129 25.45 25.45 0 011.391 1.75c.512.699.996 1.488 1.476 2.281.496.828 1.004 1.641 1.465 2.57.211.418.387.899.59 1.34 1.988 4.348 3.602 9.539 4.777 15.508l.071.352c.414 2.16.781 4.398 1.09 6.73-45.301-6.73-148.457 20.449-191.293 97.418" transform="matrix(.13333 0 0 -.13333 0 336)" clip-path="url(#br)" fill="#c9d0dc"/><path d="M803.211 577.73c-109.359-77.089-67.606-248.511-27.34-351.949h76.621c1.86 58.367 54.203 187.59 54.203 187.59-103.64-68.891-210.996 79.188-103.484 164.359" transform="matrix(.13333 0 0 -.13333 0 336)" clip-path="url(#bs)" fill="#c9d0dc"/></svg>